<svg id="Capa_1" enable-background="new 0 0 512 512" height="512" viewBox="0 0 512 512" width="512" xmlns="http://www.w3.org/2000/svg" xmlns:xlink="http://www.w3.org/1999/xlink"><linearGradient id="SVGID_1_" gradientUnits="userSpaceOnUse" x1="256" x2="256" y1="512" y2="0"><stop offset="0" stop-color="#addcff"/><stop offset=".5028" stop-color="#eaf6ff"/><stop offset="1" stop-color="#eaf6ff"/></linearGradient><linearGradient id="SVGID_2_" gradientUnits="userSpaceOnUse" x1="256" x2="256" y1="114.112" y2="397.888"><stop offset="0" stop-color="#5558ff"/><stop offset="1" stop-color="#00c0ff"/></linearGradient><g><circle cx="256" cy="256" fill="url(#SVGID_1_)" r="256"/><g><g><path d="m186.485 204.61c3.47-3.47 3.47-9.099 0-12.56-8.405-8.396-13.029-19.543-13.029-31.383s4.623-22.987 13.029-31.392c3.47-3.469 3.47-9.09 0-12.56-3.469-3.47-9.091-3.47-12.56 0-11.762 11.753-18.233 27.367-18.233 43.952 0 16.594 6.479 32.199 18.233 43.943 3.47 3.47 9.091 3.47 12.56 0zm25.103-25.103c3.469-3.47 3.469-9.091 0-12.56-1.674-1.683-2.603-3.912-2.603-6.28 0-2.376.92-4.606 2.594-6.271 3.478-3.461 3.478-9.09.017-12.56-3.461-3.479-9.082-3.479-12.56-.018-5.04 5.022-7.815 11.719-7.815 18.849 0 7.113 2.776 13.809 7.807 18.84 3.47 3.47 9.091 3.47 12.56 0zm111.325 25.103c3.47 3.47 9.091 3.47 12.56 0 11.754-11.745 18.233-27.35 18.233-43.943 0-16.585-6.471-32.199-18.233-43.952-3.469-3.47-9.09-3.47-12.56 0s-3.47 9.091 0 12.56c8.405 8.405 13.029 19.552 13.029 31.392s-4.623 22.987-13.029 31.383c-3.47 3.461-3.47 9.09 0 12.56zm-25.103-25.103c3.47 3.47 9.09 3.47 12.56 0 5.031-5.031 7.807-11.728 7.807-18.84 0-7.13-2.776-13.827-7.815-18.849-3.47-3.452-9.091-3.452-12.56.018-3.461 3.47-3.461 9.099.017 12.56 1.674 1.666 2.594 3.895 2.594 6.271 0 2.368-.928 4.597-2.602 6.28-3.471 3.469-3.471 9.09-.001 12.56zm-175.045 209.498c0 4.91 3.973 8.882 8.882 8.882h248.706c4.909 0 8.882-3.973 8.882-8.882v-26.647h-266.47zm275.353-133.235h-133.236v-72.695c10.317-3.679 17.765-13.446 17.765-25.011 0-14.694-11.953-26.647-26.647-26.647s-26.647 11.953-26.647 26.647c0 11.564 7.448 21.332 17.765 25.011v72.695h-133.236c-4.91 0-8.882 3.973-8.882 8.882v71.059c0 4.91 3.973 8.882 8.882 8.882h284.235c4.91 0 8.882-3.973 8.882-8.882v-71.059c.001-4.909-3.972-8.882-8.881-8.882zm-115.471 53.294c0 4.909-3.973 8.882-8.882 8.882s-8.882-3.973-8.882-8.882v-17.764c0-4.91 3.973-8.883 8.882-8.883s8.882 3.973 8.882 8.883zm35.53 0c0 4.909-3.973 8.882-8.882 8.882-4.91 0-8.883-3.973-8.883-8.882v-17.764c0-4.91 3.973-8.883 8.883-8.883 4.909 0 8.882 3.973 8.882 8.883zm35.529 0c0 4.909-3.973 8.882-8.882 8.882s-8.882-3.973-8.882-8.882v-17.764c0-4.91 3.973-8.883 8.882-8.883 4.91 0 8.882 3.973 8.882 8.883z" fill="url(#SVGID_2_)"/></g></g></g></svg>